<svg xmlns="http://www.w3.org/2000/svg" xmlns:xlink="http://www.w3.org/1999/xlink" width="206" zoomAndPan="magnify" viewBox="0 0 154.5 47.25" height="63" preserveAspectRatio="xMidYMid meet" version="1.0"><defs><filter x="0%" y="0%" width="100%" height="100%" id="3fbfa7e533"><feColorMatrix values="0 0 0 0 1 0 0 0 0 1 0 0 0 0 1 0 0 0 1 0" color-interpolation-filters="sRGB"/></filter><clipPath id="a0e778e836"><path d="M 1 0 L 54 0 L 54 46.511719 L 1 46.511719 Z M 1 0 " clip-rule="nonzero"/></clipPath><clipPath id="ef416a0381"><path d="M 12.703125 44.058594 L 2.117188 25.742188 C 1.292969 24.304688 1.292969 22.539062 2.117188 21.113281 L 12.703125 2.796875 C 13.527344 1.359375 15.058594 0.484375 16.722656 0.484375 L 37.90625 0.484375 C 39.566406 0.484375 41.097656 1.371094 41.921875 2.796875 L 52.507812 21.113281 C 53.332031 22.550781 53.332031 24.316406 52.507812 25.742188 L 41.921875 44.058594 C 41.097656 45.496094 39.566406 46.371094 37.90625 46.371094 L 16.722656 46.371094 C 15.058594 46.371094 13.527344 45.484375 12.703125 44.058594 Z M 12.703125 44.058594 " clip-rule="nonzero"/></clipPath><linearGradient x1="101" gradientTransform="matrix(0.344174, 0, 0, 0.344174, -7.448309, -13.401714)" y1="40.342008" x2="101" gradientUnits="userSpaceOnUse" y2="173.675007" id="25e678962c"><stop stop-opacity="1" stop-color="rgb(26.298523%, 52.89917%, 99.198914%)" offset="0"/><stop stop-opacity="1" stop-color="rgb(26.316833%, 52.874756%, 99.082947%)" offset="0.03125"/><stop stop-opacity="1" stop-color="rgb(26.35498%, 52.828979%, 98.851013%)" offset="0.0625"/><stop stop-opacity="1" stop-color="rgb(26.393127%, 52.781677%, 98.620605%)" offset="0.09375"/><stop stop-opacity="1" stop-color="rgb(26.429749%, 52.734375%, 98.388672%)" offset="0.125"/><stop stop-opacity="1" stop-color="rgb(26.467896%, 52.687073%, 98.156738%)" offset="0.15625"/><stop stop-opacity="1" stop-color="rgb(26.506042%, 52.639771%, 97.924805%)" offset="0.1875"/><stop stop-opacity="1" stop-color="rgb(26.542664%, 52.593994%, 97.694397%)" offset="0.21875"/><stop stop-opacity="1" stop-color="rgb(26.580811%, 52.546692%, 97.462463%)" offset="0.25"/><stop stop-opacity="1" stop-color="rgb(26.617432%, 52.49939%, 97.23053%)" offset="0.28125"/><stop stop-opacity="1" stop-color="rgb(26.655579%, 52.452087%, 96.998596%)" offset="0.3125"/><stop stop-opacity="1" stop-color="rgb(26.693726%, 52.406311%, 96.766663%)" offset="0.34375"/><stop stop-opacity="1" stop-color="rgb(26.730347%, 52.359009%, 96.536255%)" offset="0.375"/><stop stop-opacity="1" stop-color="rgb(26.768494%, 52.311707%, 96.304321%)" offset="0.40625"/><stop stop-opacity="1" stop-color="rgb(26.805115%, 52.264404%, 96.072388%)" offset="0.4375"/><stop stop-opacity="1" stop-color="rgb(26.843262%, 52.218628%, 95.840454%)" offset="0.46875"/><stop stop-opacity="1" stop-color="rgb(26.881409%, 52.171326%, 95.610046%)" offset="0.5"/><stop stop-opacity="1" stop-color="rgb(26.91803%, 52.124023%, 95.378113%)" offset="0.53125"/><stop stop-opacity="1" stop-color="rgb(26.956177%, 52.076721%, 95.146179%)" offset="0.5625"/><stop stop-opacity="1" stop-color="rgb(26.992798%, 52.030945%, 94.914246%)" offset="0.59375"/><stop stop-opacity="1" stop-color="rgb(27.030945%, 51.983643%, 94.683838%)" offset="0.625"/><stop stop-opacity="1" stop-color="rgb(27.069092%, 51.93634%, 94.451904%)" offset="0.65625"/><stop stop-opacity="1" stop-color="rgb(27.105713%, 51.889038%, 94.219971%)" offset="0.6875"/><stop stop-opacity="1" stop-color="rgb(27.14386%, 51.841736%, 93.988037%)" offset="0.71875"/><stop stop-opacity="1" stop-color="rgb(27.182007%, 51.795959%, 93.756104%)" offset="0.75"/><stop stop-opacity="1" stop-color="rgb(27.218628%, 51.748657%, 93.525696%)" offset="0.78125"/><stop stop-opacity="1" stop-color="rgb(27.256775%, 51.701355%, 93.293762%)" offset="0.8125"/><stop stop-opacity="1" stop-color="rgb(27.293396%, 51.654053%, 93.061829%)" offset="0.84375"/><stop stop-opacity="1" stop-color="rgb(27.331543%, 51.608276%, 92.829895%)" offset="0.875"/><stop stop-opacity="1" stop-color="rgb(27.36969%, 51.560974%, 92.599487%)" offset="0.90625"/><stop stop-opacity="1" stop-color="rgb(27.406311%, 51.513672%, 92.367554%)" offset="0.9375"/><stop stop-opacity="1" stop-color="rgb(27.444458%, 51.46637%, 92.13562%)" offset="0.96875"/><stop stop-opacity="1" stop-color="rgb(27.481079%, 51.420593%, 91.90979%)" offset="1"/></linearGradient><clipPath id="0f91017896"><path d="M 18 17 L 50 17 L 50 46.511719 L 18 46.511719 Z M 18 17 " clip-rule="nonzero"/></clipPath><mask id="b2294a4a5e"><g filter="url(#3fbfa7e533)"><rect x="-15.45" width="185.4" fill="#000000" y="-4.725" height="56.699999" fill-opacity="0.07"/></g></mask><clipPath id="87acc481e9"><path d="M 0.207031 0.484375 L 31.390625 0.484375 L 31.390625 29.511719 L 0.207031 29.511719 Z M 0.207031 0.484375 " clip-rule="nonzero"/></clipPath><clipPath id="6630930f6e"><rect x="0" width="32" y="0" height="30"/></clipPath></defs><path fill="#d9d9d9" d="M 66.179688 26.535156 C 64.925781 26.535156 63.933594 26.929688 63.210938 27.71875 C 62.492188 28.507812 62.121094 29.589844 62.121094 30.960938 C 62.121094 32.371094 62.464844 33.460938 63.167969 34.234375 C 63.871094 35.007812 64.867188 35.394531 66.164062 35.394531 C 66.960938 35.394531 67.867188 35.257812 68.890625 34.992188 L 68.890625 36.089844 C 68.097656 36.367188 67.121094 36.511719 65.957031 36.511719 C 64.277344 36.511719 62.980469 36.03125 62.066406 35.066406 C 61.152344 34.101562 60.699219 32.730469 60.699219 30.953125 C 60.699219 29.84375 60.921875 28.867188 61.355469 28.027344 C 61.800781 27.191406 62.429688 26.550781 63.257812 26.097656 C 64.082031 25.644531 65.0625 25.417969 66.1875 25.417969 C 67.386719 25.417969 68.4375 25.628906 69.324219 26.039062 L 68.765625 27.113281 C 67.902344 26.726562 67.042969 26.535156 66.179688 26.535156 Z M 66.179688 26.535156 " fill-opacity="1" fill-rule="nonzero"/><path fill="#d9d9d9" d="M 70.558594 24.800781 L 71.789062 24.800781 L 71.789062 36.511719 L 70.558594 36.511719 Z M 70.558594 24.800781 " fill-opacity="1" fill-rule="nonzero"/><path fill="#d9d9d9" d="M 80.417969 32.1875 C 80.417969 33.546875 80.085938 34.609375 79.425781 35.367188 C 78.765625 36.128906 77.851562 36.511719 76.683594 36.511719 C 75.964844 36.511719 75.320312 36.335938 74.769531 35.984375 C 74.21875 35.628906 73.785156 35.136719 73.472656 34.480469 C 73.171875 33.820312 73.023438 33.0625 73.023438 32.1875 C 73.023438 30.832031 73.347656 29.777344 74.007812 29.015625 C 74.667969 28.253906 75.582031 27.882812 76.742188 27.882812 C 77.871094 27.882812 78.765625 28.273438 79.425781 29.042969 C 80.085938 29.820312 80.417969 30.875 80.417969 32.1875 Z M 74.285156 32.1875 C 74.285156 33.25 74.492188 34.0625 74.902344 34.617188 C 75.3125 35.171875 75.921875 35.457031 76.714844 35.457031 C 77.511719 35.457031 78.121094 35.179688 78.539062 34.625 C 78.957031 34.074219 79.15625 33.261719 79.15625 32.1875 C 79.15625 31.132812 78.949219 30.328125 78.539062 29.777344 C 78.121094 29.222656 77.511719 28.953125 76.707031 28.953125 C 75.90625 28.953125 75.304688 29.222656 74.902344 29.765625 C 74.484375 30.3125 74.285156 31.117188 74.285156 32.1875 Z M 74.285156 32.1875 " fill-opacity="1" fill-rule="nonzero"/><path fill="#d9d9d9" d="M 83.488281 27.882812 L 83.488281 33.378906 C 83.488281 34.074219 83.640625 34.585938 83.945312 34.925781 C 84.25 35.269531 84.71875 35.4375 85.359375 35.4375 C 86.214844 35.4375 86.828125 35.191406 87.226562 34.707031 C 87.621094 34.222656 87.816406 33.433594 87.816406 32.332031 L 87.816406 27.882812 L 89.046875 27.882812 L 89.046875 36.351562 L 88.035156 36.351562 L 87.855469 35.21875 L 87.789062 35.21875 C 87.535156 35.628906 87.191406 35.957031 86.746094 36.175781 C 86.296875 36.394531 85.785156 36.511719 85.21875 36.511719 C 84.230469 36.511719 83.488281 36.265625 83 35.78125 C 82.511719 35.289062 82.265625 34.503906 82.265625 33.433594 L 82.265625 27.890625 L 83.488281 27.890625 Z M 83.488281 27.882812 " fill-opacity="1" fill-rule="nonzero"/><path fill="#d9d9d9" d="M 96.46875 35.269531 L 96.398438 35.269531 C 95.8125 36.097656 94.933594 36.511719 93.761719 36.511719 C 92.660156 36.511719 91.804688 36.148438 91.195312 35.421875 C 90.582031 34.695312 90.277344 33.65625 90.277344 32.320312 C 90.277344 30.976562 90.582031 29.9375 91.195312 29.195312 C 91.804688 28.453125 92.660156 28.078125 93.761719 28.078125 C 94.90625 28.078125 95.777344 28.476562 96.390625 29.277344 L 96.484375 29.277344 L 96.433594 28.695312 L 96.398438 28.121094 L 96.398438 24.800781 L 97.671875 24.800781 L 97.671875 36.359375 L 96.632812 36.359375 Z M 93.917969 35.472656 C 94.792969 35.472656 95.421875 35.242188 95.8125 34.785156 C 96.207031 34.332031 96.398438 33.585938 96.398438 32.574219 L 96.398438 32.3125 C 96.398438 31.15625 96.199219 30.335938 95.804688 29.84375 C 95.414062 29.355469 94.773438 29.109375 93.902344 29.109375 C 93.152344 29.109375 92.582031 29.390625 92.191406 29.953125 C 91.796875 30.519531 91.597656 31.308594 91.597656 32.335938 C 91.597656 33.375 91.796875 34.160156 92.191406 34.695312 C 92.582031 35.210938 93.160156 35.472656 93.917969 35.472656 Z M 93.917969 35.472656 " fill-opacity="1" fill-rule="nonzero"/><path fill="#d9d9d9" d="M 109.382812 33.488281 C 109.382812 34.4375 109.039062 35.175781 108.351562 35.714844 C 107.664062 36.242188 106.734375 36.511719 105.554688 36.511719 C 104.28125 36.511719 103.289062 36.34375 102.605469 36.015625 L 102.605469 34.804688 C 103.046875 34.992188 103.523438 35.140625 104.042969 35.25 C 104.5625 35.359375 105.085938 35.410156 105.59375 35.410156 C 106.433594 35.410156 107.0625 35.25 107.480469 34.933594 C 107.898438 34.613281 108.117188 34.175781 108.117188 33.605469 C 108.117188 33.226562 108.042969 32.925781 107.890625 32.691406 C 107.738281 32.453125 107.488281 32.226562 107.136719 32.027344 C 106.785156 31.824219 106.25 31.597656 105.535156 31.335938 C 104.53125 30.976562 103.820312 30.558594 103.390625 30.0625 C 102.964844 29.566406 102.746094 28.929688 102.746094 28.140625 C 102.746094 27.308594 103.054688 26.644531 103.683594 26.15625 C 104.304688 25.660156 105.132812 25.417969 106.15625 25.417969 C 107.230469 25.417969 108.210938 25.609375 109.105469 26.003906 L 108.710938 27.097656 C 107.824219 26.71875 106.960938 26.535156 106.125 26.535156 C 105.460938 26.535156 104.941406 26.675781 104.574219 26.964844 C 104.195312 27.25 104.011719 27.644531 104.011719 28.15625 C 104.011719 28.53125 104.078125 28.835938 104.222656 29.070312 C 104.355469 29.304688 104.589844 29.523438 104.917969 29.726562 C 105.242188 29.925781 105.746094 30.144531 106.417969 30.390625 C 107.546875 30.792969 108.316406 31.230469 108.746094 31.691406 C 109.171875 32.152344 109.382812 32.75 109.382812 33.488281 Z M 109.382812 33.488281 " fill-opacity="1" fill-rule="nonzero"/><path fill="#d9d9d9" d="M 113.3125 35.464844 C 113.511719 35.464844 113.699219 35.449219 113.882812 35.414062 C 114.0625 35.378906 114.207031 35.34375 114.3125 35.308594 L 114.3125 36.285156 C 114.191406 36.355469 114.015625 36.40625 113.78125 36.449219 C 113.546875 36.492188 113.34375 36.511719 113.15625 36.511719 C 111.746094 36.511719 111.042969 35.65625 111.042969 33.953125 L 111.042969 28.964844 L 110 28.964844 L 110 28.355469 L 111.042969 27.828125 L 111.511719 26.035156 L 112.148438 26.035156 L 112.148438 27.972656 L 114.257812 27.972656 L 114.257812 28.957031 L 112.148438 28.957031 L 112.148438 33.890625 C 112.148438 34.394531 112.253906 34.789062 112.457031 35.058594 C 112.664062 35.335938 112.949219 35.464844 113.3125 35.464844 Z M 113.3125 35.464844 " fill-opacity="1" fill-rule="nonzero"/><path fill="#d9d9d9" d="M 122.324219 32.1875 C 122.324219 33.546875 121.988281 34.609375 121.328125 35.367188 C 120.667969 36.128906 119.757812 36.511719 118.589844 36.511719 C 117.871094 36.511719 117.226562 36.335938 116.675781 35.984375 C 116.125 35.628906 115.6875 35.136719 115.378906 34.480469 C 115.078125 33.820312 114.929688 33.0625 114.929688 32.1875 C 114.929688 30.832031 115.253906 29.777344 115.914062 29.015625 C 116.574219 28.253906 117.484375 27.882812 118.648438 27.882812 C 119.773438 27.882812 120.667969 28.273438 121.328125 29.042969 C 121.988281 29.820312 122.324219 30.875 122.324219 32.1875 Z M 116.191406 32.1875 C 116.191406 33.25 116.398438 34.0625 116.808594 34.617188 C 117.21875 35.171875 117.828125 35.457031 118.621094 35.457031 C 119.414062 35.457031 120.027344 35.179688 120.445312 34.625 C 120.863281 34.074219 121.0625 33.261719 121.0625 32.1875 C 121.0625 31.132812 120.851562 30.328125 120.445312 29.777344 C 120.027344 29.222656 119.414062 28.953125 118.613281 28.953125 C 117.8125 28.953125 117.210938 29.222656 116.808594 29.765625 C 116.390625 30.3125 116.191406 31.117188 116.191406 32.1875 Z M 116.191406 32.1875 " fill-opacity="1" fill-rule="nonzero"/><path fill="#d9d9d9" d="M 127.589844 27.882812 C 127.925781 27.882812 128.222656 27.917969 128.488281 27.980469 L 128.332031 29.167969 C 128.019531 29.085938 127.746094 29.050781 127.511719 29.050781 C 126.90625 29.050781 126.382812 29.335938 125.957031 29.886719 C 125.527344 30.441406 125.308594 31.136719 125.308594 31.964844 L 125.308594 36.511719 L 124.171875 36.511719 L 124.171875 28.042969 L 125.105469 28.042969 L 125.238281 29.605469 L 125.292969 29.605469 C 125.574219 29.050781 125.910156 28.628906 126.296875 28.332031 C 126.6875 28.03125 127.125 27.882812 127.589844 27.882812 Z M 127.589844 27.882812 " fill-opacity="1" fill-rule="nonzero"/><path fill="#d9d9d9" d="M 134.410156 36.355469 L 134.179688 35.167969 L 134.125 35.167969 C 133.742188 35.6875 133.355469 36.042969 132.972656 36.234375 C 132.589844 36.414062 132.121094 36.511719 131.546875 36.511719 C 130.777344 36.511719 130.1875 36.292969 129.75 35.871094 C 129.316406 35.445312 129.101562 34.839844 129.101562 34.050781 C 129.101562 32.367188 130.347656 31.492188 132.832031 31.40625 L 134.132812 31.363281 L 134.132812 30.84375 C 134.132812 30.183594 134.003906 29.707031 133.742188 29.398438 C 133.476562 29.085938 133.0625 28.929688 132.496094 28.929688 C 131.855469 28.929688 131.128906 29.144531 130.324219 29.570312 L 129.964844 28.601562 C 130.339844 28.375 130.753906 28.203125 131.210938 28.074219 C 131.664062 27.945312 132.113281 27.882812 132.566406 27.882812 C 133.484375 27.882812 134.164062 28.097656 134.601562 28.539062 C 135.042969 28.980469 135.265625 29.691406 135.265625 30.660156 L 135.265625 36.347656 Z M 131.777344 35.464844 C 132.503906 35.464844 133.070312 35.246094 133.484375 34.8125 C 133.898438 34.382812 134.109375 33.777344 134.109375 33.007812 L 134.109375 32.253906 L 132.941406 32.304688 C 132.015625 32.339844 131.34375 32.496094 130.9375 32.773438 C 130.53125 33.050781 130.324219 33.480469 130.324219 34.0625 C 130.324219 34.519531 130.453125 34.867188 130.707031 35.101562 C 130.960938 35.34375 131.320312 35.464844 131.777344 35.464844 Z M 131.777344 35.464844 " fill-opacity="1" fill-rule="nonzero"/><path fill="#d9d9d9" d="M 144.507812 28.039062 L 144.507812 28.800781 L 142.933594 28.976562 C 143.078125 29.148438 143.207031 29.363281 143.324219 29.636719 C 143.4375 29.910156 143.492188 30.21875 143.492188 30.566406 C 143.492188 31.34375 143.207031 31.972656 142.632812 32.4375 C 142.070312 32.902344 141.28125 33.132812 140.292969 33.132812 C 140.035156 33.132812 139.796875 33.117188 139.574219 33.074219 C 139.027344 33.347656 138.753906 33.6875 138.753906 34.101562 C 138.753906 34.316406 138.851562 34.484375 139.042969 34.582031 C 139.238281 34.6875 139.566406 34.738281 140.035156 34.738281 L 141.546875 34.738281 C 142.464844 34.738281 143.175781 34.921875 143.667969 35.285156 C 144.164062 35.648438 144.410156 36.179688 144.410156 36.875 C 144.410156 37.761719 144.03125 38.433594 143.28125 38.894531 C 142.519531 39.359375 141.421875 39.589844 139.972656 39.589844 C 138.859375 39.589844 138 39.402344 137.398438 39.011719 C 136.796875 38.621094 136.496094 38.078125 136.496094 37.363281 C 136.496094 36.875 136.664062 36.460938 136.992188 36.105469 C 137.320312 35.75 137.789062 35.507812 138.390625 35.386719 C 138.167969 35.292969 137.992188 35.152344 137.84375 34.953125 C 137.691406 34.765625 137.621094 34.53125 137.621094 34.277344 C 137.621094 33.984375 137.699219 33.730469 137.867188 33.515625 C 138.035156 33.296875 138.292969 33.082031 138.65625 32.882812 C 138.214844 32.710938 137.859375 32.429688 137.578125 32.015625 C 137.300781 31.609375 137.160156 31.144531 137.160156 30.617188 C 137.160156 29.746094 137.445312 29.066406 138 28.59375 C 138.558594 28.125 139.355469 27.882812 140.378906 27.882812 C 140.820312 27.882812 141.230469 27.933594 141.582031 28.03125 Z M 137.71875 37.355469 C 137.71875 37.785156 137.914062 38.117188 138.300781 38.339844 C 138.691406 38.566406 139.246094 38.671875 139.972656 38.671875 C 141.050781 38.671875 141.855469 38.523438 142.378906 38.21875 C 142.898438 37.910156 143.15625 37.503906 143.15625 36.984375 C 143.15625 36.550781 143.015625 36.253906 142.730469 36.082031 C 142.449219 35.914062 141.910156 35.832031 141.121094 35.832031 L 139.574219 35.832031 C 138.992188 35.832031 138.53125 35.964844 138.203125 36.222656 C 137.878906 36.476562 137.71875 36.867188 137.71875 37.355469 Z M 138.417969 30.589844 C 138.417969 31.144531 138.585938 31.566406 138.921875 31.859375 C 139.257812 32.148438 139.726562 32.289062 140.328125 32.289062 C 141.582031 32.289062 142.21875 31.714844 142.21875 30.574219 C 142.21875 29.375 141.582031 28.777344 140.308594 28.777344 C 139.699219 28.777344 139.238281 28.925781 138.910156 29.234375 C 138.585938 29.539062 138.417969 29.996094 138.417969 30.589844 Z M 138.417969 30.589844 " fill-opacity="1" fill-rule="nonzero"/><path fill="#d9d9d9" d="M 148.953125 36.511719 C 147.769531 36.511719 146.832031 36.140625 146.148438 35.386719 C 145.464844 34.632812 145.125 33.597656 145.125 32.265625 C 145.125 30.925781 145.441406 29.855469 146.082031 29.066406 C 146.722656 28.28125 147.570312 27.882812 148.644531 27.882812 C 149.648438 27.882812 150.441406 28.230469 151.03125 28.910156 C 151.613281 29.59375 151.902344 30.503906 151.902344 31.625 L 151.902344 32.421875 L 146.382812 32.421875 C 146.40625 33.398438 146.640625 34.140625 147.097656 34.652344 C 147.546875 35.160156 148.1875 35.414062 149 35.414062 C 149.867188 35.414062 150.714844 35.222656 151.5625 34.851562 L 151.5625 35.976562 C 151.128906 36.164062 150.730469 36.304688 150.347656 36.390625 C 149.949219 36.46875 149.492188 36.511719 148.953125 36.511719 Z M 148.617188 28.929688 C 147.976562 28.929688 147.460938 29.144531 147.082031 29.585938 C 146.695312 30.019531 146.472656 30.625 146.40625 31.394531 L 150.597656 31.394531 C 150.597656 30.597656 150.425781 29.992188 150.082031 29.570312 C 149.742188 29.144531 149.25 28.929688 148.617188 28.929688 Z M 148.617188 28.929688 " fill-opacity="1" fill-rule="nonzero"/><path fill="#d9d9d9" d="M 75.730469 10.917969 L 68.757812 10.917969 L 68.757812 13.042969 L 73.695312 13.042969 C 73.449219 16.023438 71.035156 17.292969 68.765625 17.292969 C 65.859375 17.292969 63.308594 14.9375 63.308594 11.636719 C 63.308594 8.414062 65.734375 5.941406 68.765625 5.941406 C 71.113281 5.941406 72.496094 7.480469 72.496094 7.480469 L 73.945312 5.933594 C 73.945312 5.933594 72.089844 3.808594 68.699219 3.808594 C 64.386719 3.808594 61.042969 7.546875 61.042969 11.601562 C 61.042969 15.5625 64.1875 19.429688 68.800781 19.429688 C 72.867188 19.429688 75.839844 16.566406 75.839844 12.328125 C 75.851562 11.425781 75.730469 10.917969 75.730469 10.917969 Z M 75.730469 10.917969 " fill-opacity="1" fill-rule="nonzero"/><path fill="#d9d9d9" d="M 80.78125 9.5625 C 77.898438 9.5625 75.839844 11.820312 75.839844 14.457031 C 75.839844 17.136719 77.84375 19.429688 80.8125 19.429688 C 83.503906 19.429688 85.707031 17.363281 85.707031 14.511719 C 85.71875 11.253906 83.152344 9.5625 80.78125 9.5625 Z M 80.8125 11.503906 C 82.226562 11.503906 83.570312 12.648438 83.570312 14.5 C 83.570312 16.316406 82.238281 17.5 80.8125 17.5 C 79.242188 17.5 78.011719 16.238281 78.011719 14.488281 C 78 12.785156 79.222656 11.503906 80.8125 11.503906 Z M 80.8125 11.503906 " fill-opacity="1" fill-rule="nonzero"/><path fill="#d9d9d9" d="M 91.46875 9.5625 C 88.585938 9.5625 86.53125 11.820312 86.53125 14.457031 C 86.53125 17.136719 88.53125 19.429688 91.503906 19.429688 C 94.191406 19.429688 96.398438 17.363281 96.398438 14.511719 C 96.398438 11.253906 93.832031 9.5625 91.46875 9.5625 Z M 91.492188 11.503906 C 92.90625 11.503906 94.25 12.648438 94.25 14.5 C 94.25 16.316406 92.914062 17.5 91.492188 17.5 C 89.921875 17.5 88.6875 16.238281 88.6875 14.488281 C 88.6875 12.785156 89.910156 11.503906 91.492188 11.503906 Z M 91.492188 11.503906 " fill-opacity="1" fill-rule="nonzero"/><path fill="#d9d9d9" d="M 102.164062 9.5625 C 99.390625 9.5625 97.21875 11.835938 97.21875 14.375 C 97.21875 17.28125 99.746094 19.203125 102.117188 19.203125 C 103.585938 19.203125 104.371094 18.660156 104.9375 18.027344 L 104.9375 18.980469 C 104.9375 20.644531 103.859375 21.644531 102.222656 21.644531 C 100.644531 21.644531 99.863281 20.542969 99.578125 19.921875 L 97.597656 20.699219 C 98.296875 22.085938 99.722656 23.539062 102.234375 23.539062 C 104.988281 23.539062 107.085938 21.917969 107.085938 18.515625 L 107.085938 9.851562 L 104.925781 9.851562 L 104.925781 10.671875 C 104.285156 9.996094 103.375 9.5625 102.164062 9.5625 Z M 102.367188 11.449219 C 103.730469 11.449219 105.117188 12.535156 105.117188 14.386719 C 105.117188 16.273438 103.730469 17.304688 102.328125 17.304688 C 100.847656 17.304688 99.472656 16.183594 99.472656 14.398438 C 99.484375 12.558594 100.917969 11.449219 102.367188 11.449219 Z M 102.367188 11.449219 " fill-opacity="1" fill-rule="nonzero"/><path fill="#d9d9d9" d="M 115.796875 9.5625 C 113.304688 9.5625 111.195312 11.546875 111.195312 14.484375 C 111.195312 17.589844 113.53125 19.429688 116.035156 19.429688 C 118.121094 19.429688 119.402344 18.28125 120.160156 17.261719 L 118.460938 16.128906 C 118.019531 16.820312 117.28125 17.488281 116.046875 17.488281 C 114.664062 17.488281 114.027344 16.730469 113.632812 15.992188 L 120.238281 13.246094 L 119.898438 12.441406 C 119.253906 10.878906 117.757812 9.5625 115.796875 9.5625 Z M 115.875 11.457031 C 116.773438 11.457031 117.429688 11.933594 117.703125 12.511719 L 113.292969 14.359375 C 113.101562 12.929688 114.449219 11.457031 115.875 11.457031 Z M 115.875 11.457031 " fill-opacity="1" fill-rule="nonzero"/><path fill="#d9d9d9" d="M 107.90625 18.605469 L 110.375 18.605469 L 110.375 4.628906 L 107.90625 4.628906 Z M 107.90625 18.605469 " fill-opacity="1" fill-rule="nonzero"/><g clip-path="url(#a0e778e836)"><g clip-path="url(#ef416a0381)"><path fill="url(#25e678962c)" d="M 1.292969 0.484375 L 1.292969 46.371094 L 53.332031 46.371094 L 53.332031 0.484375 Z M 1.292969 0.484375 " fill-rule="nonzero"/></g></g><g clip-path="url(#0f91017896)"><g mask="url(#b2294a4a5e)"><g transform="matrix(1, 0, 0, 1, 18, 17)"><g clip-path="url(#6630930f6e)"><g clip-path="url(#87acc481e9)"><path fill="#000000" d="M 31.113281 14.300781 L 17.722656 0.910156 L 3.242188 2.234375 L 0.421875 5.039062 L 2.8125 7.417969 L 0.449219 11.613281 L 18.320312 29.484375 L 22.660156 29.484375 Z M 31.113281 14.300781 " fill-opacity="1" fill-rule="nonzero"/></g></g></g></g></g><path fill="#ffffff" d="M 35.445312 17.691406 L 19.179688 17.691406 C 18.914062 17.691406 18.707031 17.933594 18.707031 18.214844 L 18.707031 21.949219 C 18.707031 22.246094 18.925781 22.472656 19.179688 22.472656 L 35.445312 22.472656 C 35.714844 22.472656 35.917969 22.230469 35.917969 21.949219 L 35.917969 18.214844 C 35.929688 17.933594 35.714844 17.691406 35.445312 17.691406 Z M 32.9375 21.171875 C 32.402344 21.171875 31.96875 20.691406 31.96875 20.097656 C 31.96875 19.503906 32.402344 19.019531 32.9375 19.019531 C 33.472656 19.019531 33.90625 19.503906 33.90625 20.097656 C 33.90625 20.691406 33.472656 21.171875 32.9375 21.171875 Z M 32.9375 21.171875 " fill-opacity="1" fill-rule="nonzero"/><path fill="#ffffff" d="M 35.445312 24.382812 L 19.179688 24.382812 C 18.914062 24.382812 18.707031 24.625 18.707031 24.90625 L 18.707031 28.640625 C 18.707031 28.9375 18.925781 29.164062 19.179688 29.164062 L 35.445312 29.164062 C 35.714844 29.164062 35.917969 28.921875 35.917969 28.640625 L 35.917969 24.90625 C 35.929688 24.609375 35.714844 24.382812 35.445312 24.382812 Z M 32.9375 27.847656 C 32.402344 27.847656 31.96875 27.367188 31.96875 26.773438 C 31.96875 26.179688 32.402344 25.699219 32.9375 25.699219 C 33.472656 25.699219 33.90625 26.179688 33.90625 26.773438 C 33.90625 27.367188 33.472656 27.847656 32.9375 27.847656 Z M 32.9375 27.847656 " fill-opacity="1" fill-rule="nonzero"/></svg>