<svg id="_x31__x2C_5_px" enable-background="new 0 0 24 24" height="512" viewBox="0 0 24 24" width="512" xmlns="http://www.w3.org/2000/svg"><g><path d="m14.25 20.25h-11.5c-1.105 0-2-.895-2-2v-13.5c0-1.105.895-2 2-2h11.5c1.105 0 2 .895 2 2v13.5c0 1.105-.895 2-2 2z" fill="#eceff1"/></g><g><path d="m22.96 13.88-1.24-1.24c-.39-.39-.85-.21-1.24.18l-7.42 7.42-.53 3.01 3-.53 7.43-7.42c.39-.4.39-1.03 0-1.42z" fill="#ffc107"/></g><g><path d="m12.527 24c-.197 0-.389-.078-.53-.22-.173-.173-.251-.42-.208-.66l.53-3.005c.027-.152.1-.292.208-.4l7.425-7.425c.316-.316.651-.514.996-.585.476-.1.939.045 1.302.408l1.237 1.237c.682.683.682 1.792 0 2.475l-7.424 7.425c-.109.108-.249.182-.4.208l-3.005.53c-.044.008-.087.012-.131.012zm3.006-1.28h.01zm-1.778-2.112-.303 1.717 1.717-.303 7.257-7.258c.097-.098.097-.256 0-.354l-1.228-1.228c-.01.019-.085.066-.186.167z"/></g><g><path d="m10.01 21h-7.26c-1.517 0-2.75-1.233-2.75-2.75v-13.5c0-1.517 1.233-2.75 2.75-2.75h11.5c1.517 0 2.75 1.233 2.75 2.75v8.06c0 .414-.336.75-.75.75s-.75-.336-.75-.75v-8.06c0-.689-.561-1.25-1.25-1.25h-11.5c-.689 0-1.25.561-1.25 1.25v13.5c0 .689.561 1.25 1.25 1.25h7.26c.414 0 .75.336.75.75s-.336.75-.75.75z"/></g><g><path d="m3.75 5c-.414 0-.75-.336-.75-.75v-3.5c0-.414.336-.75.75-.75s.75.336.75.75v3.5c0 .414-.336.75-.75.75z"/></g><g><path d="m8.5 5c-.414 0-.75-.336-.75-.75v-3.5c0-.414.336-.75.75-.75s.75.336.75.75v3.5c0 .414-.336.75-.75.75z"/></g><g><path d="m13.25 5c-.414 0-.75-.336-.75-.75v-3.5c0-.414.336-.75.75-.75s.75.336.75.75v3.5c0 .414-.336.75-.75.75z"/></g><g><path d="m11.25 13.5h-7.5c-.414 0-.75-.336-.75-.75s.336-.75.75-.75h7.5c.414 0 .75.336.75.75s-.336.75-.75.75z"/></g><g><path d="m8.25 9.5h-4.5c-.414 0-.75-.336-.75-.75s.336-.75.75-.75h4.5c.414 0 .75.336.75.75s-.336.75-.75.75z"/></g></svg>