<svg xmlns="http://www.w3.org/2000/svg" xmlns:xlink="http://www.w3.org/1999/xlink" width="512" zoomAndPan="magnify" viewBox="0 0 384 383.999986" height="512" preserveAspectRatio="xMidYMid meet" version="1.2"><defs><clipPath id="1846d8e6a4"><path d="M 192 206 L 363.308594 206 L 363.308594 378 L 192 378 Z M 192 206 "/></clipPath></defs><g id="b0da1d46a9"><path style=" stroke:none;fill-rule:nonzero;fill:#7175d6;fill-opacity:1;" d="M 233.0625 13.683594 C 230.414062 11.71875 227.628906 9.960938 224.710938 8.417969 C 221.792969 6.875 218.777344 5.5625 215.660156 4.480469 C 212.542969 3.398438 209.359375 2.558594 206.113281 1.960938 C 202.867188 1.363281 199.59375 1.015625 196.296875 0.917969 C 157.621094 -0.0117188 119.054688 1.578125 80.585938 5.683594 C 54.917969 8.664062 30.296875 33.28125 27.316406 58.953125 C 20.589844 121.9375 20.589844 238.886719 27.316406 301.871094 C 30.257812 327.542969 54.917969 352.160156 80.585938 355.140625 C 143.582031 361.890625 206.578125 361.890625 269.574219 355.140625 C 295.246094 352.160156 319.859375 327.542969 322.84375 301.871094 C 327.425781 258.96875 328.886719 191.039062 327.253906 132.171875 L 327.253906 131.929688 C 327.226562 128.777344 326.953125 125.648438 326.433594 122.539062 C 325.910156 119.429688 325.152344 116.378906 324.152344 113.390625 C 323.15625 110.398438 321.929688 107.503906 320.476562 104.707031 C 319.023438 101.910156 317.359375 99.242188 315.488281 96.707031 C 303.882812 80.90625 291.171875 66.046875 277.359375 52.136719 C 263.546875 38.222656 248.78125 25.40625 233.0625 13.683594 Z M 233.0625 13.683594 "/><path style=" stroke:none;fill-rule:nonzero;fill:#7175d6;fill-opacity:1;" d="M 275.289062 86.785156 C 275.292969 73.003906 273.859375 59.371094 270.984375 45.894531 C 259.023438 34.359375 246.382812 23.621094 233.0625 13.683594 C 230.414062 11.71875 227.628906 9.960938 224.710938 8.417969 C 221.792969 6.875 218.777344 5.5625 215.660156 4.480469 C 212.542969 3.398438 209.359375 2.558594 206.113281 1.960938 C 202.867188 1.363281 199.59375 1.015625 196.296875 0.917969 C 157.621094 -0.0117188 119.054688 1.578125 80.585938 5.683594 C 54.917969 8.664062 30.296875 33.28125 27.316406 58.953125 C 21.480469 113.605469 20.699219 208.878906 25 274.28125 C 42.949219 279.519531 61.269531 282.132812 79.960938 282.121094 C 187.839844 282.121094 275.289062 194.664062 275.289062 86.785156 Z M 275.289062 86.785156 "/><path style=" stroke:none;fill-rule:nonzero;fill:#eaecf1;fill-opacity:1;" d="M 327.195312 132.171875 C 322.300781 132.296875 317.410156 132.378906 312.539062 132.378906 C 291.851562 132.371094 271.21875 131.273438 250.644531 129.078125 L 250.46875 129.078125 C 238.210938 127.65625 226.164062 121.578125 216.554688 111.964844 C 206.945312 102.355469 200.863281 90.300781 199.4375 78.050781 C 199.4375 77.992188 199.4375 77.933594 199.4375 77.875 C 196.703125 52.292969 195.664062 26.640625 196.316406 0.917969 C 199.617188 1.015625 202.890625 1.363281 206.136719 1.960938 C 209.382812 2.558594 212.5625 3.398438 215.679688 4.480469 C 218.800781 5.5625 221.816406 6.875 224.734375 8.417969 C 227.652344 9.960938 230.4375 11.71875 233.085938 13.683594 C 248.828125 25.433594 263.617188 38.285156 277.449219 52.234375 C 291.28125 66.183594 304.003906 81.078125 315.621094 96.917969 C 317.480469 99.441406 319.128906 102.097656 320.566406 104.878906 C 322.003906 107.664062 323.214844 110.542969 324.195312 113.519531 C 325.179688 116.496094 325.921875 119.527344 326.425781 122.621094 C 326.929688 125.714844 327.183594 128.828125 327.195312 131.960938 Z M 327.195312 132.171875 "/><path style=" stroke:none;fill-rule:nonzero;fill:#eaecf1;fill-opacity:1;" d="M 210.863281 250.835938 L 95.265625 250.835938 C 94.589844 250.835938 93.917969 250.902344 93.257812 251.035156 C 92.59375 251.167969 91.949219 251.363281 91.324219 251.621094 C 90.699219 251.878906 90.109375 252.195312 89.546875 252.570312 C 88.984375 252.949219 88.464844 253.375 87.984375 253.851562 C 87.507812 254.332031 87.082031 254.851562 86.707031 255.414062 C 86.328125 255.972656 86.011719 256.566406 85.753906 257.191406 C 85.496094 257.816406 85.300781 258.460938 85.167969 259.125 C 85.035156 259.785156 84.96875 260.457031 84.96875 261.132812 C 84.96875 261.808594 85.035156 262.476562 85.167969 263.140625 C 85.300781 263.804688 85.496094 264.449219 85.753906 265.070312 C 86.011719 265.695312 86.328125 266.289062 86.707031 266.851562 C 87.082031 267.414062 87.507812 267.933594 87.984375 268.410156 C 88.464844 268.890625 88.984375 269.316406 89.546875 269.691406 C 90.109375 270.066406 90.699219 270.382812 91.324219 270.644531 C 91.949219 270.902344 92.59375 271.097656 93.257812 271.230469 C 93.917969 271.359375 94.589844 271.425781 95.265625 271.425781 L 210.863281 271.425781 C 211.539062 271.425781 212.207031 271.359375 212.871094 271.230469 C 213.535156 271.097656 214.179688 270.902344 214.800781 270.644531 C 215.425781 270.382812 216.019531 270.066406 216.582031 269.691406 C 217.144531 269.316406 217.664062 268.890625 218.144531 268.410156 C 218.621094 267.933594 219.046875 267.414062 219.421875 266.851562 C 219.796875 266.289062 220.117188 265.695312 220.375 265.070312 C 220.632812 264.445312 220.828125 263.804688 220.960938 263.140625 C 221.09375 262.476562 221.15625 261.808594 221.15625 261.132812 C 221.15625 260.457031 221.09375 259.785156 220.960938 259.125 C 220.828125 258.460938 220.632812 257.816406 220.375 257.191406 C 220.117188 256.566406 219.796875 255.972656 219.421875 255.414062 C 219.046875 254.851562 218.621094 254.332031 218.144531 253.851562 C 217.664062 253.375 217.144531 252.949219 216.582031 252.570312 C 216.019531 252.195312 215.425781 251.878906 214.800781 251.621094 C 214.179688 251.363281 213.535156 251.167969 212.871094 251.035156 C 212.207031 250.902344 211.539062 250.835938 210.863281 250.835938 Z M 210.863281 250.835938 "/><path style=" stroke:none;fill-rule:nonzero;fill:#eaecf1;fill-opacity:1;" d="M 95.265625 219.738281 L 254.835938 219.738281 C 255.511719 219.738281 256.183594 219.671875 256.847656 219.542969 C 257.507812 219.410156 258.152344 219.214844 258.777344 218.957031 C 259.402344 218.695312 259.996094 218.378906 260.558594 218.003906 C 261.117188 217.628906 261.640625 217.203125 262.117188 216.722656 C 262.59375 216.246094 263.023438 215.726562 263.398438 215.164062 C 263.773438 214.601562 264.089844 214.007812 264.347656 213.382812 C 264.605469 212.757812 264.800781 212.117188 264.933594 211.453125 C 265.066406 210.789062 265.132812 210.121094 265.132812 209.445312 C 265.132812 208.769531 265.066406 208.097656 264.933594 207.433594 C 264.800781 206.773438 264.605469 206.128906 264.347656 205.503906 C 264.089844 204.878906 263.773438 204.285156 263.398438 203.722656 C 263.023438 203.164062 262.59375 202.640625 262.117188 202.164062 C 261.640625 201.6875 261.117188 201.257812 260.558594 200.882812 C 259.996094 200.507812 259.402344 200.191406 258.777344 199.933594 C 258.152344 199.675781 257.507812 199.480469 256.847656 199.347656 C 256.183594 199.214844 255.511719 199.148438 254.835938 199.148438 L 95.265625 199.148438 C 94.589844 199.148438 93.917969 199.214844 93.257812 199.347656 C 92.59375 199.480469 91.949219 199.675781 91.324219 199.933594 C 90.699219 200.191406 90.109375 200.507812 89.546875 200.882812 C 88.984375 201.257812 88.464844 201.6875 87.984375 202.164062 C 87.507812 202.640625 87.082031 203.164062 86.707031 203.722656 C 86.328125 204.285156 86.011719 204.878906 85.753906 205.503906 C 85.496094 206.128906 85.300781 206.773438 85.167969 207.433594 C 85.035156 208.097656 84.96875 208.769531 84.96875 209.445312 C 84.96875 210.121094 85.035156 210.789062 85.167969 211.453125 C 85.300781 212.117188 85.496094 212.757812 85.753906 213.382812 C 86.011719 214.007812 86.328125 214.601562 86.707031 215.164062 C 87.082031 215.726562 87.507812 216.246094 87.984375 216.722656 C 88.464844 217.203125 88.984375 217.628906 89.546875 218.003906 C 90.109375 218.378906 90.699219 218.695312 91.324219 218.957031 C 91.949219 219.214844 92.59375 219.410156 93.257812 219.542969 C 93.917969 219.671875 94.589844 219.738281 95.265625 219.738281 Z M 95.265625 219.738281 "/><path style=" stroke:none;fill-rule:nonzero;fill:#eaecf1;fill-opacity:1;" d="M 95.265625 168.058594 L 203.363281 168.058594 C 204.039062 168.058594 204.707031 167.992188 205.371094 167.859375 C 206.035156 167.726562 206.675781 167.53125 207.300781 167.273438 C 207.925781 167.015625 208.519531 166.699219 209.082031 166.324219 C 209.644531 165.949219 210.164062 165.519531 210.640625 165.042969 C 211.121094 164.566406 211.546875 164.042969 211.921875 163.484375 C 212.296875 162.921875 212.613281 162.328125 212.875 161.703125 C 213.132812 161.078125 213.328125 160.433594 213.460938 159.773438 C 213.589844 159.109375 213.65625 158.4375 213.65625 157.761719 C 213.65625 157.085938 213.589844 156.417969 213.460938 155.753906 C 213.328125 155.089844 213.132812 154.449219 212.875 153.824219 C 212.613281 153.199219 212.296875 152.605469 211.921875 152.042969 C 211.546875 151.480469 211.121094 150.960938 210.640625 150.484375 C 210.164062 150.003906 209.644531 149.578125 209.082031 149.203125 C 208.519531 148.828125 207.925781 148.511719 207.300781 148.25 C 206.675781 147.992188 206.035156 147.796875 205.371094 147.667969 C 204.707031 147.535156 204.039062 147.46875 203.363281 147.46875 L 95.265625 147.46875 C 94.589844 147.46875 93.917969 147.535156 93.257812 147.667969 C 92.59375 147.796875 91.949219 147.992188 91.324219 148.25 C 90.699219 148.511719 90.109375 148.828125 89.546875 149.203125 C 88.984375 149.578125 88.464844 150.003906 87.984375 150.484375 C 87.507812 150.960938 87.082031 151.480469 86.707031 152.042969 C 86.328125 152.605469 86.011719 153.199219 85.753906 153.824219 C 85.496094 154.449219 85.300781 155.089844 85.167969 155.753906 C 85.035156 156.417969 84.96875 157.085938 84.96875 157.761719 C 84.96875 158.4375 85.035156 159.109375 85.167969 159.773438 C 85.300781 160.433594 85.496094 161.078125 85.753906 161.703125 C 86.011719 162.328125 86.328125 162.921875 86.707031 163.484375 C 87.082031 164.042969 87.507812 164.566406 87.984375 165.042969 C 88.464844 165.519531 88.984375 165.949219 89.546875 166.324219 C 90.109375 166.699219 90.699219 167.015625 91.324219 167.273438 C 91.949219 167.53125 92.59375 167.726562 93.257812 167.859375 C 93.917969 167.992188 94.589844 168.058594 95.265625 168.058594 Z M 95.265625 168.058594 "/><g clip-rule="nonzero" clip-path="url(#1846d8e6a4)"><path style=" stroke:none;fill-rule:nonzero;fill:#8051bf;fill-opacity:1;" d="M 278.089844 206.707031 C 276.695312 206.707031 275.300781 206.742188 273.90625 206.8125 C 272.515625 206.878906 271.125 206.980469 269.734375 207.117188 C 268.347656 207.253906 266.964844 207.425781 265.582031 207.628906 C 264.203125 207.835938 262.828125 208.074219 261.460938 208.34375 C 260.09375 208.617188 258.734375 208.921875 257.378906 209.261719 C 256.027344 209.601562 254.683594 209.972656 253.347656 210.375 C 252.011719 210.78125 250.6875 211.21875 249.375 211.6875 C 248.0625 212.15625 246.761719 212.660156 245.472656 213.195312 C 244.183594 213.726562 242.910156 214.292969 241.648438 214.886719 C 240.386719 215.484375 239.140625 216.113281 237.910156 216.769531 C 236.679688 217.425781 235.46875 218.113281 234.273438 218.832031 C 233.074219 219.546875 231.898438 220.292969 230.738281 221.066406 C 229.578125 221.84375 228.4375 222.644531 227.316406 223.476562 C 226.195312 224.308594 225.097656 225.164062 224.019531 226.050781 C 222.941406 226.933594 221.882812 227.847656 220.851562 228.78125 C 219.816406 229.71875 218.808594 230.679688 217.820312 231.667969 C 216.835938 232.652344 215.875 233.664062 214.9375 234.695312 C 214 235.730469 213.089844 236.785156 212.203125 237.863281 C 211.320312 238.941406 210.460938 240.042969 209.628906 241.160156 C 208.800781 242.28125 207.996094 243.421875 207.222656 244.582031 C 206.445312 245.742188 205.699219 246.917969 204.984375 248.117188 C 204.265625 249.3125 203.578125 250.523438 202.921875 251.753906 C 202.261719 252.984375 201.636719 254.230469 201.039062 255.492188 C 200.441406 256.753906 199.878906 258.027344 199.34375 259.316406 C 198.808594 260.605469 198.308594 261.90625 197.839844 263.21875 C 197.367188 264.53125 196.929688 265.855469 196.527344 267.191406 C 196.121094 268.527344 195.75 269.871094 195.410156 271.222656 C 195.070312 272.574219 194.765625 273.9375 194.492188 275.304688 C 194.21875 276.671875 193.980469 278.046875 193.777344 279.425781 C 193.574219 280.804688 193.402344 282.1875 193.265625 283.578125 C 193.128906 284.964844 193.027344 286.355469 192.957031 287.75 C 192.886719 289.140625 192.855469 290.535156 192.855469 291.929688 C 192.855469 293.324219 192.886719 294.71875 192.957031 296.113281 C 193.023438 297.507812 193.128906 298.898438 193.265625 300.285156 C 193.402344 301.671875 193.570312 303.058594 193.777344 304.4375 C 193.980469 305.816406 194.21875 307.191406 194.492188 308.558594 C 194.761719 309.925781 195.070312 311.289062 195.40625 312.640625 C 195.746094 313.992188 196.117188 315.335938 196.523438 316.671875 C 196.925781 318.007812 197.363281 319.332031 197.835938 320.644531 C 198.304688 321.957031 198.804688 323.257812 199.339844 324.546875 C 199.875 325.835938 200.4375 327.109375 201.035156 328.371094 C 201.632812 329.632812 202.257812 330.878906 202.914062 332.109375 C 203.574219 333.339844 204.261719 334.550781 204.976562 335.75 C 205.695312 336.945312 206.441406 338.121094 207.214844 339.28125 C 207.992188 340.441406 208.792969 341.582031 209.625 342.703125 C 210.453125 343.824219 211.3125 344.921875 212.199219 346 C 213.082031 347.078125 213.992188 348.136719 214.929688 349.167969 C 215.867188 350.203125 216.828125 351.210938 217.8125 352.199219 C 218.800781 353.183594 219.808594 354.148438 220.84375 355.082031 C 221.878906 356.019531 222.933594 356.929688 224.011719 357.816406 C 225.089844 358.699219 226.1875 359.558594 227.308594 360.390625 C 228.429688 361.21875 229.570312 362.023438 230.730469 362.796875 C 231.890625 363.574219 233.066406 364.320312 234.261719 365.035156 C 235.460938 365.753906 236.671875 366.441406 237.902344 367.097656 C 239.132812 367.757812 240.378906 368.382812 241.640625 368.980469 C 242.902344 369.574219 244.175781 370.140625 245.464844 370.675781 C 246.753906 371.207031 248.054688 371.710938 249.367188 372.179688 C 250.679688 372.652344 252.003906 373.089844 253.339844 373.492188 C 254.671875 373.898438 256.015625 374.269531 257.371094 374.609375 C 258.722656 374.949219 260.085938 375.253906 261.453125 375.527344 C 262.820312 375.796875 264.195312 376.035156 265.574219 376.242188 C 266.953125 376.445312 268.335938 376.617188 269.726562 376.753906 C 271.113281 376.890625 272.503906 376.992188 273.898438 377.0625 C 275.289062 377.128906 276.683594 377.164062 278.078125 377.164062 C 279.472656 377.164062 280.867188 377.128906 282.261719 377.0625 C 283.65625 376.992188 285.046875 376.890625 286.433594 376.753906 C 287.820312 376.617188 289.207031 376.445312 290.585938 376.242188 C 291.964844 376.035156 293.339844 375.796875 294.707031 375.527344 C 296.074219 375.253906 297.433594 374.949219 298.789062 374.609375 C 300.140625 374.269531 301.484375 373.898438 302.820312 373.496094 C 304.15625 373.089844 305.480469 372.652344 306.792969 372.183594 C 308.105469 371.710938 309.40625 371.210938 310.695312 370.675781 C 311.984375 370.144531 313.257812 369.578125 314.519531 368.980469 C 315.78125 368.386719 317.027344 367.757812 318.257812 367.101562 C 319.488281 366.445312 320.699219 365.757812 321.894531 365.039062 C 323.09375 364.320312 324.269531 363.574219 325.429688 362.800781 C 326.589844 362.027344 327.730469 361.222656 328.851562 360.390625 C 329.972656 359.5625 331.070312 358.703125 332.148438 357.820312 C 333.226562 356.933594 334.28125 356.023438 335.316406 355.085938 C 336.351562 354.148438 337.359375 353.1875 338.347656 352.203125 C 339.332031 351.214844 340.292969 350.207031 341.230469 349.171875 C 342.167969 348.140625 343.078125 347.082031 343.964844 346.003906 C 344.847656 344.925781 345.707031 343.828125 346.535156 342.707031 C 347.367188 341.585938 348.171875 340.445312 348.945312 339.285156 C 349.71875 338.128906 350.464844 336.949219 351.183594 335.753906 C 351.902344 334.554688 352.589844 333.34375 353.246094 332.113281 C 353.902344 330.882812 354.53125 329.636719 355.125 328.375 C 355.722656 327.117188 356.289062 325.839844 356.820312 324.550781 C 357.355469 323.261719 357.859375 321.960938 358.328125 320.648438 C 358.796875 319.335938 359.234375 318.011719 359.640625 316.675781 C 360.042969 315.34375 360.417969 314 360.753906 312.644531 C 361.09375 311.292969 361.398438 309.929688 361.671875 308.5625 C 361.945312 307.195312 362.183594 305.820312 362.386719 304.441406 C 362.589844 303.0625 362.761719 301.679688 362.898438 300.289062 C 363.035156 298.902344 363.136719 297.511719 363.207031 296.117188 C 363.273438 294.726562 363.308594 293.332031 363.308594 291.9375 C 363.308594 290.542969 363.273438 289.148438 363.207031 287.753906 C 363.136719 286.363281 363.035156 284.972656 362.898438 283.582031 C 362.761719 282.195312 362.59375 280.8125 362.386719 279.429688 C 362.183594 278.050781 361.945312 276.679688 361.671875 275.308594 C 361.398438 273.941406 361.09375 272.582031 360.753906 271.230469 C 360.417969 269.875 360.046875 268.53125 359.640625 267.195312 C 359.234375 265.863281 358.796875 264.539062 358.328125 263.226562 C 357.859375 261.910156 357.355469 260.609375 356.824219 259.324219 C 356.289062 258.035156 355.722656 256.757812 355.128906 255.5 C 354.53125 254.238281 353.90625 252.992188 353.246094 251.761719 C 352.589844 250.53125 351.902344 249.320312 351.183594 248.121094 C 350.46875 246.925781 349.722656 245.75 348.949219 244.589844 C 348.171875 243.429688 347.371094 242.289062 346.539062 241.167969 C 345.707031 240.046875 344.851562 238.949219 343.964844 237.871094 C 343.082031 236.792969 342.171875 235.738281 341.234375 234.703125 C 340.296875 233.667969 339.335938 232.660156 338.347656 231.671875 C 337.363281 230.6875 336.355469 229.726562 335.320312 228.789062 C 334.285156 227.851562 333.230469 226.941406 332.152344 226.058594 C 331.074219 225.171875 329.976562 224.3125 328.855469 223.484375 C 327.734375 222.652344 326.59375 221.847656 325.4375 221.074219 C 324.277344 220.300781 323.097656 219.554688 321.902344 218.835938 C 320.707031 218.121094 319.492188 217.433594 318.261719 216.773438 C 317.03125 216.117188 315.785156 215.488281 314.527344 214.894531 C 313.265625 214.296875 311.992188 213.730469 310.703125 213.199219 C 309.414062 212.664062 308.113281 212.164062 306.800781 211.691406 C 305.488281 211.222656 304.164062 210.785156 302.828125 210.378906 C 301.492188 209.976562 300.148438 209.601562 298.796875 209.265625 C 297.445312 208.925781 296.082031 208.621094 294.714844 208.347656 C 293.347656 208.074219 291.972656 207.835938 290.59375 207.632812 C 289.214844 207.425781 287.832031 207.257812 286.441406 207.121094 C 285.054688 206.984375 283.664062 206.878906 282.269531 206.8125 C 280.878906 206.742188 279.484375 206.707031 278.089844 206.707031 Z M 278.089844 206.707031 "/></g><path style=" stroke:none;fill-rule:nonzero;fill:#eaecf1;fill-opacity:1;" d="M 317.902344 274.824219 L 285.363281 242.300781 C 284.882812 241.820312 284.363281 241.394531 283.800781 241.019531 C 283.238281 240.644531 282.644531 240.328125 282.023438 240.066406 C 281.398438 239.808594 280.753906 239.613281 280.089844 239.480469 C 279.425781 239.351562 278.757812 239.285156 278.082031 239.285156 C 277.40625 239.285156 276.738281 239.351562 276.074219 239.480469 C 275.410156 239.613281 274.765625 239.808594 274.140625 240.066406 C 273.515625 240.328125 272.925781 240.644531 272.363281 241.019531 C 271.800781 241.394531 271.28125 241.820312 270.800781 242.300781 L 238.300781 274.824219 C 237.804688 275.296875 237.363281 275.816406 236.972656 276.378906 C 236.582031 276.941406 236.25 277.539062 235.980469 278.164062 C 235.707031 278.792969 235.5 279.441406 235.359375 280.113281 C 235.214844 280.78125 235.140625 281.460938 235.136719 282.144531 C 235.128906 282.828125 235.1875 283.507812 235.316406 284.179688 C 235.445312 284.851562 235.640625 285.507812 235.898438 286.140625 C 236.15625 286.773438 236.476562 287.375 236.855469 287.945312 C 237.234375 288.515625 237.664062 289.042969 238.148438 289.527344 C 238.632812 290.011719 239.160156 290.445312 239.730469 290.824219 C 240.300781 291.203125 240.902344 291.519531 241.535156 291.78125 C 242.167969 292.039062 242.820312 292.234375 243.496094 292.363281 C 244.167969 292.492188 244.84375 292.550781 245.53125 292.546875 C 246.214844 292.539062 246.890625 292.464844 247.5625 292.320312 C 248.230469 292.179688 248.878906 291.972656 249.507812 291.703125 C 250.136719 291.429688 250.734375 291.101562 251.296875 290.710938 C 251.859375 290.320312 252.378906 289.878906 252.851562 289.382812 L 267.808594 274.433594 L 267.808594 334.308594 C 267.808594 334.984375 267.875 335.652344 268.007812 336.316406 C 268.136719 336.980469 268.332031 337.621094 268.59375 338.246094 C 268.851562 338.871094 269.167969 339.464844 269.542969 340.027344 C 269.917969 340.589844 270.347656 341.109375 270.824219 341.585938 C 271.300781 342.066406 271.824219 342.492188 272.382812 342.867188 C 272.945312 343.242188 273.539062 343.558594 274.164062 343.820312 C 274.789062 344.078125 275.433594 344.273438 276.09375 344.40625 C 276.757812 344.535156 277.429688 344.601562 278.105469 344.601562 C 278.78125 344.601562 279.449219 344.535156 280.113281 344.40625 C 280.777344 344.273438 281.417969 344.078125 282.042969 343.820312 C 282.667969 343.558594 283.261719 343.242188 283.824219 342.867188 C 284.386719 342.492188 284.90625 342.066406 285.382812 341.585938 C 285.863281 341.109375 286.289062 340.589844 286.664062 340.027344 C 287.039062 339.464844 287.355469 338.871094 287.617188 338.246094 C 287.875 337.621094 288.070312 336.980469 288.199219 336.316406 C 288.332031 335.652344 288.398438 334.984375 288.398438 334.308594 L 288.398438 274.433594 L 303.347656 289.382812 C 303.828125 289.863281 304.347656 290.289062 304.910156 290.667969 C 305.472656 291.042969 306.0625 291.359375 306.6875 291.621094 C 307.3125 291.878906 307.957031 292.074219 308.621094 292.207031 C 309.285156 292.339844 309.953125 292.40625 310.628906 292.40625 C 311.308594 292.40625 311.976562 292.339844 312.640625 292.207031 C 313.304688 292.078125 313.949219 291.882812 314.574219 291.621094 C 315.199219 291.363281 315.789062 291.046875 316.351562 290.671875 C 316.914062 290.296875 317.4375 289.867188 317.914062 289.390625 C 318.394531 288.910156 318.820312 288.390625 319.195312 287.828125 C 319.570312 287.265625 319.886719 286.671875 320.148438 286.046875 C 320.40625 285.421875 320.601562 284.777344 320.734375 284.117188 C 320.863281 283.453125 320.929688 282.78125 320.929688 282.105469 C 320.929688 281.429688 320.863281 280.761719 320.730469 280.097656 C 320.597656 279.433594 320.402344 278.789062 320.144531 278.164062 C 319.882812 277.539062 319.566406 276.945312 319.191406 276.382812 C 318.816406 275.824219 318.386719 275.300781 317.910156 274.824219 Z M 317.902344 274.824219 "/></g></svg>